<svg width="28" height="28" viewBox="0 0 28 28" fill="none" xmlns="http://www.w3.org/2000/svg">
<path d="M14 2.33333C7.56704 2.33333 2.33337 7.567 2.33337 14C2.33337 20.433 7.56704 25.6667 14 25.6667C20.433 25.6667 25.6667 20.433 25.6667 14C25.6667 7.567 20.433 2.33333 14 2.33333ZM14 23.3333C8.85387 23.3333 4.66671 19.1462 4.66671 14C4.66671 8.85383 8.85387 4.66666 14 4.66666C19.1462 4.66666 23.3334 8.85383 23.3334 14C23.3334 19.1462 19.1462 23.3333 14 23.3333Z" fill="white"/>
<path d="M10.5 19.8333L19.8333 14L10.5 8.16667V19.8333Z" fill="white"/>
</svg>
