<svg width="207" height="56" viewBox="0 0 207 56" fill="none" xmlns="http://www.w3.org/2000/svg">
<g clip-path="url(#clip0_1_44)">
<path d="M137.726 0V40.5118C142.723 40.7442 147.707 41.0252 152.677 41.3567V49.946C144.794 49.4204 136.904 49.0216 129.009 48.7497V0H137.726ZM206.999 0.00485156L195.648 26.3222L206.997 55.6086L206.984 55.6139C203.675 55.1431 200.363 54.6953 197.048 54.2704L190.675 37.8333L184.242 52.7446C181.192 52.4078 178.139 52.0896 175.079 51.7904L186.145 26.1459L176.011 0.00525586H185.441L191.115 14.6343L197.425 0.00485156H206.999ZM99.0897 48.324V0.00444727H123.424V8.67096H107.807V19.9023H119.624V28.4916H107.807V48.3224L99.0897 48.324ZM66.5386 8.67136V0.00404297H93.5011V8.67096H84.3782V48.5589C81.4685 48.6357 78.562 48.7255 75.6615 48.835V8.67136H66.5386ZM36.7371 51.332V0.00566016H60.9504V8.67176H45.4533V20.4109C49.0135 20.3652 54.0757 20.3139 57.2252 20.3212V28.9113C53.2829 28.8628 48.8328 28.9654 45.4533 28.999V42.0028C50.6152 41.596 55.7812 41.2429 60.9504 40.9436V49.5336C52.8699 49.9998 44.7977 50.5996 36.7371 51.3328V51.332ZM19.6365 31.4761L19.6361 0.00404297H28.3536V52.1422C25.1669 52.4697 21.9859 52.8186 18.8109 53.1869L8.71605 24.1867V54.4289C5.8047 54.8081 2.89902 55.2031 -0.000999451 55.6159V0.00485156H8.28345L19.6361 31.4761H19.6365ZM159.868 50.4639V0.00485156H168.586V51.184C165.684 50.9252 162.779 50.6867 159.868 50.4643V50.4639Z" fill="#DB202C"/>
</g>
<defs>
<clipPath id="clip0_1_44">
<rect width="207" height="55.793" fill="white"/>
</clipPath>
</defs>
</svg>
