<svg width="57" height="57" viewBox="0 0 57 57" fill="none" xmlns="http://www.w3.org/2000/svg">
<path d="M31.3598 9.19012L31.345 17.7314L31.33 26.2728L30.6314 24.29L30.6301 24.2862L29.7274 43.3015C30.615 45.8229 31.0905 47.1688 31.0958 47.1742C31.1026 47.1813 31.6086 47.212 32.2198 47.2425C34.0716 47.3349 36.3666 47.5329 38.1075 47.7506C38.5105 47.8009 38.8574 47.8268 38.8784 47.8078C38.8992 47.7891 38.9105 39.0924 38.9037 28.482L38.8908 9.19012H31.3598Z" fill="#B1060F" stroke="black" stroke-width="0.611984"/>
<path d="M17.7386 9.16455V28.476C17.7386 39.0973 17.7491 47.7978 17.7617 47.8105C17.7743 47.8232 18.4282 47.7611 19.2148 47.6725C20.0013 47.5839 21.0886 47.4737 21.6306 47.4276C22.462 47.357 24.9442 47.1965 25.2316 47.1947C25.3152 47.1942 25.3205 46.7605 25.3327 39.0154L25.3456 30.8363L25.9461 32.5457L26.1586 33.1497L27.061 14.1391L26.7509 13.2574C26.2877 11.9396 25.8241 10.6219 25.3602 9.30438L25.3104 9.16455H17.7386Z" fill="#B1060F" stroke="black" stroke-width="0.611984"/>
<path d="M17.7386 9.16455V20.0046L25.3301 40.2609C25.3309 39.7967 25.3318 39.546 25.3327 39.0154L25.3456 30.8363L25.9461 32.5457C29.2893 42.0616 31.0854 47.1635 31.096 47.1742C31.1029 47.1813 31.6089 47.212 32.22 47.2425C34.0718 47.3349 36.3668 47.5329 38.1077 47.7506C38.5108 47.801 38.8576 47.8268 38.8787 47.8079C38.8928 47.795 38.9023 43.5306 38.9048 37.5151L31.3488 15.6637L31.3452 17.7315L31.3302 26.2728L30.6316 24.29C29.949 22.3527 29.4932 21.0571 26.7509 13.2574C26.2877 11.9396 25.8241 10.6219 25.3602 9.30438L25.3104 9.16455H17.7386Z" fill="url(#paint0_radial_113_47)"/>
<path d="M17.7386 9.16455L25.3453 30.8461V30.8363L25.9459 32.5457C29.2891 42.0616 31.0852 47.1635 31.0958 47.1742C31.1026 47.1813 31.6086 47.2121 32.2198 47.2426C34.0716 47.335 36.3666 47.5329 38.1075 47.7507C38.5086 47.8008 38.8534 47.8264 38.8778 47.8081L31.3297 26.269V26.2728L30.6312 24.29C29.9485 22.3527 29.4928 21.0571 26.7505 13.2574C26.0129 11.16 25.3872 9.38142 25.3597 9.30438L25.3099 9.16455H17.7386Z" fill="#E50914"/>
<path d="M31.3598 9.19012L31.345 17.7314L31.33 26.2728L30.6314 24.29L30.6301 24.2862L29.7274 43.3015C30.615 45.8229 31.0905 47.1688 31.0958 47.1742C31.1026 47.1813 31.6086 47.212 32.2198 47.2425C34.0716 47.3349 36.3666 47.5329 38.1075 47.7506C38.5105 47.8009 38.8574 47.8268 38.8784 47.8078C38.8992 47.7891 38.9105 39.0924 38.9037 28.482L38.8908 9.19012H31.3598Z" fill="#B1060F" stroke="black" stroke-width="0.611984"/>
<path d="M17.7386 9.16455V28.476C17.7386 39.0973 17.7491 47.7978 17.7617 47.8105C17.7743 47.8232 18.4282 47.7611 19.2148 47.6725C20.0013 47.5839 21.0886 47.4737 21.6306 47.4276C22.462 47.357 24.9442 47.1965 25.2316 47.1947C25.3152 47.1942 25.3205 46.7605 25.3327 39.0154L25.3456 30.8363L25.9461 32.5457L26.1586 33.1497L27.061 14.1391L26.7509 13.2574C26.2877 11.9396 25.8241 10.6219 25.3602 9.30438L25.3104 9.16455H17.7386Z" fill="#B1060F" stroke="black" stroke-width="0.611984"/>
<path d="M17.7386 9.16455V20.0046L25.3301 40.2609C25.3309 39.7967 25.3318 39.546 25.3327 39.0154L25.3456 30.8363L25.9461 32.5457C29.2893 42.0616 31.0854 47.1635 31.096 47.1742C31.1029 47.1813 31.6089 47.212 32.22 47.2425C34.0718 47.3349 36.3668 47.5329 38.1077 47.7506C38.5108 47.801 38.8576 47.8268 38.8787 47.8079C38.8928 47.795 38.9023 43.5306 38.9048 37.5151L31.3488 15.6637L31.3452 17.7315L31.3302 26.2728L30.6316 24.29C29.949 22.3527 29.4932 21.0571 26.7509 13.2574C26.2877 11.9396 25.8241 10.6219 25.3602 9.30438L25.3104 9.16455H17.7386Z" fill="url(#paint1_radial_113_47)"/>
<path d="M17.7386 9.16455L25.3453 30.8461V30.8363L25.9459 32.5457C29.2891 42.0616 31.0852 47.1635 31.0958 47.1742C31.1026 47.1813 31.6086 47.2121 32.2198 47.2426C34.0716 47.335 36.3666 47.5329 38.1075 47.7507C38.5086 47.8008 38.8534 47.8264 38.8778 47.8081L31.3297 26.269V26.2728L30.6312 24.29C29.9485 22.3527 29.4928 21.0571 26.7505 13.2574C26.0129 11.16 25.3872 9.38142 25.3597 9.30438L25.3099 9.16455H17.7386Z" fill="#E50914"/>
<defs>
<radialGradient id="paint0_radial_113_47" cx="0" cy="0" r="1" gradientUnits="userSpaceOnUse" gradientTransform="translate(27.9704 15.6199) scale(14.909 14.9971)">
<stop/>
<stop offset="1" stop-opacity="0"/>
</radialGradient>
<radialGradient id="paint1_radial_113_47" cx="0" cy="0" r="1" gradientUnits="userSpaceOnUse" gradientTransform="translate(27.9704 15.6199) scale(14.909 14.9971)">
<stop/>
<stop offset="1" stop-opacity="0"/>
</radialGradient>
</defs>
</svg>
